# xmcd
#
# Track frame offsets: 
#        182
#        18327
#        26252
#        47692
#        63177
#        70572
#        84327
#        96440
#        104350
#        114625
#        122465
#        135345
#        148277
#        160122
#
# Disc length: 2291 seconds
#
# Revision: 4
# Processed by: cddbd v1.5.2PL0 Copyright (c) Steve Scherf et al.
# Submitted via: ExactAudioCopyFreeDBPlugin 1.0
#
DISCID=ae08f10e
DTITLE=Various Artist - Noël - Vol.1 - Chants et cantiques de Noël
DYEAR=2000
DGENRE=Chants de Noël
TTITLE0=Alain Vanzo - Minuit chrétien (1962)
TTITLE1=Jack Lantier - Entre le boeuf et l'âne gris (1972)
TTITLE2=Marie-Louise Girod - Or nous dites Marie (1969)
TTITLE3=Les petits chanteurs de St Laurent - La nuit (1963)
TTITLE4=Le petit choeur du collège de Montreux and C. Jauquier - Les ber
TTITLE4=gers de Béthléem sont accourus (1960)
TTITLE5=Les chanteurs de St Eustache - Noël des bergers et des mages (
TTITLE5=1949)
TTITLE6=Petula Clark - Mon beau sapin (1963)
TTITLE7=Les choeurs de l'opéra de Vienne - O Tannenbaum (1976)
TTITLE8=Petula Clark - Il est né le divin enfant (1963)
TTITLE9=Le petit choeur du collège de Montreux and C. Jauquier - Marche 
TTITLE9=des rois (1960)
TTITLE10=Jack Lantier - L'enfant au tambour (1972)
TTITLE11=Le petit choeur du collège de Montreux and C. Jauquier - D'où v
TTITLE11=iens-tu bergère ? (1964)
TTITLE12=Jack Lantier - Trois anges sont venus (1972)
TTITLE13=Les choeurs de l'opéra de Vienne - Herbei Oh Ihr Glaubiden (1
TTITLE13=976)
EXTD=YEAR: 2000
EXTT0=
EXTT1=
EXTT2=
EXTT3=
EXTT4=
EXTT5=
EXTT6=
EXTT7=
EXTT8=
EXTT9=
EXTT10=
EXTT11=
EXTT12=
EXTT13=
PLAYORDER=
